<svg id="Layer_1" data-name="Layer 1" xmlns="http://www.w3.org/2000/svg" viewBox="0 0 233.68 95.53"><defs><style>.cls-1{isolation:isolate;font-size:5px;font-family:Arial;font-weight:700;}.cls-2{font-size:32px;fill:#007fa3;font-family:Suisse Int'l;}.cls-3{letter-spacing:1px;}.cls-4{fill:#ec1944;}</style></defs><title>logoTVO_WritersDesk</title><text class="cls-1" transform="translate(85.71 87.4)">Created by Chameleon Design</text><text class="cls-1" transform="translate(52.09 93.65)">from the Noun Project</text><text class="cls-2" x="-2.27" y="12.48"><tspan x="118.71" y="43.4">W</tspan><tspan x="149.05" y="43.4">rite</tspan><tspan class="cls-3" x="192.73" y="43.4">r</tspan><tspan x="203.45" y="43.4">’</tspan><tspan x="209.88" y="43.4">s </tspan><tspan x="118.71" y="71.4">D</tspan><tspan x="140.66" y="71.4">e</tspan><tspan x="159.09" y="71.4">sk</tspan></text><path class="cls-4" d="M58.82,19.44c-2.17,0-4.32-.69-5.93-0.7a2.45,2.45,0,0,0-2.54,2.47,2.57,2.57,0,0,0,2.48,2.72,3.64,3.64,0,0,0,1.67-.36,2.74,2.74,0,0,1,.76-0.2c0.23,0,.51.15,0.53,0.91a10.16,10.16,0,0,1-.92,2.91L48.32,45.53,40.9,25.63A7.57,7.57,0,0,1,40.42,24a0.51,0.51,0,0,1,.6-0.59,5.64,5.64,0,0,1,1.33.22,3.74,3.74,0,0,0,1.41.33,2.8,2.8,0,0,0,2.58-2.72c0-1.43-1.16-2.47-3.15-2.47s-4.15.71-6.26,0.7-3.69-.69-5.74-0.7a3.14,3.14,0,0,0-2.21.71,2.29,2.29,0,0,0-.7,1.76c0,1.57.92,2.71,2.09,2.72a3.23,3.23,0,0,0,1.43-.36,3.37,3.37,0,0,1,1-.2c0.47,0,1.06.47,2,2.86l8.69,22.43c0.75,1.88,1.88,3.87,4.44,3.87h0c2.65,0,3.8-1.86,4.6-3.87l8.49-21.75c0.6-1.47.95-2.42,1.2-3s0.38-.57.43-0.57a5.16,5.16,0,0,1,1.07.22,3.82,3.82,0,0,0,1.43.33,2.74,2.74,0,0,0,2.59-2.72c0-1.41-1.14-2.47-2.91-2.47s-4,.71-6.06.7M73,35.28A17.12,17.12,0,0,1,75.05,27c1.75-2.94,4.16-4,7.57-4.05,2.92,0,5.63,1,7.22,3.45A16.63,16.63,0,0,1,92,35c0,6.55-2.4,12.83-9.79,12.83-7,0-9.24-6.48-9.27-12.59m-6,.19c0,9.24,5,17.44,15.21,17.45,10.37,0,15.82-8,15.84-17.65a20.09,20.09,0,0,0-4-12.5c-3-3.69-7.19-4.91-11.76-4.91C71.93,17.88,67,26.16,67,35.47M8.56,9.51A4.75,4.75,0,0,0,8.08,12v5.13a3.55,3.55,0,0,1-.14,1.44,0.74,0.74,0,0,1-.7.15H5.05a2.85,2.85,0,0,0-2.78,2.66,2.33,2.33,0,0,0,1.08,2.21,6,6,0,0,0,3,.49c1.92,0.18,1.62-.08,1.78,1.79V39.65c0,5.12.32,6.74,1.29,8.61,1.54,2.88,4.72,4,7.73,4h0.05c4.47,0,7.16-1.65,8.61-4.23s1.74-6,1.75-9.66c0-1.56-.66-3.39-2.72-3.39A2.43,2.43,0,0,0,22.52,36a6.24,6.24,0,0,0-.64,3.27v2c0,3-.61,5.8-4,5.8-3.07-.07-4.07-1.41-4.15-7V24.9a1,1,0,0,1,.1-0.72A2.56,2.56,0,0,1,14.92,24h5.51a4.67,4.67,0,0,0,3-.75,2.35,2.35,0,0,0,.78-1.88,2.49,2.49,0,0,0-.78-2,4.45,4.45,0,0,0-2.81-.69H14.36a1.61,1.61,0,0,1-.6,0,0.83,0.83,0,0,1-.06-0.54V11.92a4.76,4.76,0,0,0-.48-2.38,2.43,2.43,0,0,0-2.31-1.16H10.86a2.48,2.48,0,0,0-2.3,1.14" transform="translate(-2.27 12.48)"/></svg>